# xmcd
#
# Track frame offsets:
#	150
#	10860
#	26061
#	44602
#	60633
#	76149
#	90593
#	103728
#	117473
#	129217
#	140569
#	156797
#
# Disc length: 2311 seconds
#
# Revision: 1
# Processed by: cddbd v1.5.2PL0 Copyright (c) Steve Scherf et al.
# Submitted via: audiograbber 1.83.01
#
DISCID=9809050c
DTITLE=Patrick Feeney - Take Care Of You For Me
DYEAR=1900
DGENRE=
TTITLE0=Take Care Of You For Me (In Kansas City)
TTITLE1=Airline Bird
TTITLE2=There's A Moon Over Ireland
TTITLE3=Elizabeth
TTITLE4=Green Fields Around Athenry
TTITLE5=A Legend In My Time
TTITLE6=After You Leave Me
TTITLE7=The Old Bog Road
TTITLE8=Love Has A Mind Of Its Own
TTITLE9=Take Me To The River
TTITLE10=Connemara Country Boy
TTITLE11=Too Much On My Heart
EXTD=
EXTT0=
EXTT1=
EXTT2=
EXTT3=
EXTT4=
EXTT5=
EXTT6=
EXTT7=
EXTT8=
EXTT9=
EXTT10=
EXTT11=
PLAYORDER=
